<svg id="Component_1_1" data-name="Component 1 – 1" xmlns="http://www.w3.org/2000/svg" width="576" height="396" viewBox="0 0 576 396">
  <g id="Rectangle_2" data-name="Rectangle 2" transform="translate(271 318)" fill="#a7adba" stroke="#707070" stroke-width="1">
    <rect width="34" height="73" stroke="none"/>
    <rect x="0.5" y="0.5" width="33" height="72" fill="none"/>
  </g>
  <g id="Rectangle_1" data-name="Rectangle 1" fill="#a7adba" stroke="#707070" stroke-width="1">
    <rect width="576" height="324" rx="7" stroke="none"/>
    <rect x="0.5" y="0.5" width="575" height="323" rx="6.5" fill="none"/>
  </g>
  <g id="Rectangle_3" data-name="Rectangle 3" transform="translate(169 386)" fill="#a7adba" stroke="#707070" stroke-width="1">
    <rect width="238" height="10" rx="5" stroke="none"/>
    <rect x="0.5" y="0.5" width="237" height="9" rx="4.5" fill="none"/>
  </g>
  <g id="Path_1" data-name="Path 1" transform="translate(7 7)" fill="#9da5c4">
    <path d="M 561.5 309.5 L 0.5 309.5 L 0.5 0.5 L 561.5 0.5 L 561.5 309.5 Z" stroke="none"/>
    <path d="M 1 1 L 1 309 L 561 309 L 561 1 L 1 1 M 0 0 L 562 0 L 562 310 L 0 310 L 0 0 Z" stroke="none" fill="#707070"/>
  </g>
  <g id="Rectangle_6" data-name="Rectangle 6" transform="translate(7 7)" fill="#5b6797" stroke="#707070" stroke-width="1">
    <rect width="87" height="310" stroke="none"/>
    <rect x="0.5" y="0.5" width="86" height="309" fill="none"/>
  </g>
  <rect id="Rectangle_8" data-name="Rectangle 8" width="56" height="13" rx="6.5" transform="translate(23 25)" fill="#b2ddcc"/>
  <rect id="Rectangle_7" data-name="Rectangle 7" width="350" height="13" rx="6.5" transform="translate(127 25)" fill="#e9d5f5"/>
  <rect id="Rectangle_7-2" data-name="Rectangle 7" width="300" height="13" rx="6.5" transform="translate(127 54)" fill="#f9d5a5"/>
  <rect id="Rectangle_7-3" data-name="Rectangle 7" width="380" height="13" rx="6.5" transform="translate(127 83)" fill="#27dbc8"/>
  <rect id="Rectangle_8-2" data-name="Rectangle 8" width="36" height="13" rx="6.5" transform="translate(23 141)" fill="#f9d5a5"/>
  <rect id="Rectangle_8-3" data-name="Rectangle 8" width="42" height="13" rx="6.5" transform="translate(23 83)" fill="#e9d5f5"/>
  <rect id="Rectangle_8-4" data-name="Rectangle 8" width="38" height="13" rx="6.5" transform="translate(23 54)" fill="#f9d5a5"/>
  <rect id="Rectangle_8-5" data-name="Rectangle 8" width="20" height="13" rx="6.5" transform="translate(23 170)" fill="#e9d5f5"/>
  <rect id="Rectangle_8-6" data-name="Rectangle 8" width="44" height="13" rx="6.5" transform="translate(23 112)" fill="#b2ddcc"/>
  <rect id="Rectangle_7-4" data-name="Rectangle 7" width="200" height="13" rx="6.5" transform="translate(127 112)" fill="#fc59f1"/>
  <rect id="Rectangle_7-5" data-name="Rectangle 7" width="300" height="13" rx="6.5" transform="translate(127 141)" fill="#ffc577"/>
  <rect id="Rectangle_7-6" data-name="Rectangle 7" width="280" height="13" rx="6.5" transform="translate(127 170)" fill="#79fbc7"/>
  <rect id="Rectangle_7-7" data-name="Rectangle 7" width="350" height="13" rx="6.5" transform="translate(127 199)" fill="#cb8bf5"/>
  <rect id="Rectangle_7-8" data-name="Rectangle 7" width="240" height="13" rx="6.5" transform="translate(127 228)" fill="#fbfb75"/>
  <rect id="Rectangle_7-9" data-name="Rectangle 7" width="150" height="13" rx="6.5" transform="translate(127 257)" fill="#68ff77"/>
</svg>
